<svg width="24" height="24" viewBox="0 0 24 24" fill="none" xmlns="http://www.w3.org/2000/svg">
<path d="M5 15L4.4 14.5C2.4 12.6 1 11.4 1 9.9C1 8.7 2 7.7 3.2 7.7C3.9 7.7 4.6 8 5 8.5C5.4 8 6.1 7.7 6.8 7.7C8 7.7 9 8.6 9 9.9C9 11.4 7.6 12.6 5.6 14.5L5 15ZM15 4C13.9391 4 12.9217 4.42143 12.1716 5.17157C11.4214 5.92172 11 6.93913 11 8C11 9.06087 11.4214 10.0783 12.1716 10.8284C12.9217 11.5786 13.9391 12 15 12C16.0609 12 17.0783 11.5786 17.8284 10.8284C18.5786 10.0783 19 9.06087 19 8C19 6.93913 18.5786 5.92172 17.8284 5.17157C17.0783 4.42143 16.0609 4 15 4ZM15 10.1C14.443 10.1 13.9089 9.87875 13.5151 9.48492C13.1212 9.0911 12.9 8.55695 12.9 8C12.9 7.44305 13.1212 6.9089 13.5151 6.51508C13.9089 6.12125 14.443 5.9 15 5.9C15.2758 5.9 15.5489 5.95432 15.8036 6.05985C16.0584 6.16539 16.2899 6.32007 16.4849 6.51508C16.6799 6.71008 16.8346 6.94158 16.9401 7.19636C17.0457 7.45115 17.1 7.72422 17.1 8C17.1 8.27578 17.0457 8.54885 16.9401 8.80364C16.8346 9.05842 16.6799 9.28992 16.4849 9.48492C16.2899 9.67993 16.0584 9.83461 15.8036 9.94015C15.5489 10.0457 15.2758 10.1 15 10.1ZM15 13C12.33 13 7 14.33 7 17V20H23V17C23 14.33 17.67 13 15 13ZM21.1 18.1H8.9V17C8.9 16.36 12 14.9 15 14.9C17.97 14.9 21.1 16.36 21.1 17V18.1Z" fill="white"/>
</svg>
