<svg width="50" height="50" viewBox="0 0 50 50" fill="none" xmlns="http://www.w3.org/2000/svg">
<path d="M25 40C19.7916 40 15.1875 37.3334 12.5 33.3334C12.5625 29.1667 20.8333 26.875 25 26.875C29.1666 26.875 37.4375 29.1667 37.5 33.3334C36.1226 35.3842 34.2622 37.0649 32.0824 38.2275C29.9026 39.39 27.4704 39.9987 25 40ZM25 10.4167C26.6576 10.4167 28.2473 11.0752 29.4194 12.2473C30.5915 13.4194 31.25 15.0091 31.25 16.6667C31.25 18.3243 30.5915 19.914 29.4194 21.0861C28.2473 22.2582 26.6576 22.9167 25 22.9167C23.3424 22.9167 21.7526 22.2582 20.5805 21.0861C19.4084 19.914 18.75 18.3243 18.75 16.6667C18.75 15.0091 19.4084 13.4194 20.5805 12.2473C21.7526 11.0752 23.3424 10.4167 25 10.4167ZM25 4.16669C22.2641 4.16669 19.555 4.70556 17.0274 5.75253C14.4998 6.7995 12.2031 8.33407 10.2686 10.2686C6.36156 14.1756 4.16663 19.4747 4.16663 25C4.16663 30.5254 6.36156 35.8244 10.2686 39.7314C12.2031 41.666 14.4998 43.2005 17.0274 44.2475C19.555 45.2945 22.2641 45.8334 25 45.8334C30.5253 45.8334 35.8243 43.6384 39.7313 39.7314C43.6384 35.8244 45.8333 30.5254 45.8333 25C45.8333 13.4792 36.4583 4.16669 25 4.16669Z" fill="white"/>
</svg>
