<svg width="84" height="80" viewBox="0 0 84 80" fill="none" xmlns="http://www.w3.org/2000/svg">
<path d="M42 58.6666C48.9036 58.6666 54.5 53.0702 54.5 46.1666C54.5 39.2631 48.9036 33.6666 42 33.6666C35.0964 33.6666 29.5 39.2631 29.5 46.1666C29.5 53.0702 35.0964 58.6666 42 58.6666Z" stroke="white" stroke-width="8.33333" stroke-linecap="round" stroke-linejoin="round"/>
<path d="M67 4.5V29.5M12.8333 21.1667H21.1667C23.3768 21.1667 25.4964 20.2887 27.0592 18.7259C28.622 17.1631 29.5 15.0435 29.5 12.8333C29.5 11.7283 29.939 10.6685 30.7204 9.88706C31.5018 9.10565 32.5616 8.66667 33.6667 8.66667H42L12.8333 21.1667ZM79.5 37.8333V67C79.5 69.2101 78.622 71.3297 77.0592 72.8926C75.4964 74.4554 73.3768 75.3333 71.1667 75.3333H12.8333C10.6232 75.3333 8.50358 74.4554 6.94078 72.8926C5.37797 71.3297 4.5 69.2101 4.5 67V29.5C4.5 27.2899 5.37797 25.1702 6.94078 23.6074C8.50358 22.0446 10.6232 21.1667 12.8333 21.1667L79.5 37.8333ZM54.5 17H79.5H54.5Z" stroke="white" stroke-width="8.33333" stroke-linecap="round" stroke-linejoin="round"/>
</svg>
