<svg width="76" height="84" viewBox="0 0 76 84" fill="none" xmlns="http://www.w3.org/2000/svg">
<path d="M67.6166 43.5667C67.1277 43.0084 66.6124 42.4487 66.0708 41.8875C66.4486 41.4875 66.8152 41.0889 67.1708 40.6917C73.8583 33.175 76.6833 25.6334 74.0666 21.1042C71.5583 16.7584 64.0958 15.4625 54.75 17.2792C53.8305 17.4598 52.9152 17.6625 52.0041 17.8875C51.8291 17.2875 51.6444 16.6903 51.4499 16.0959C48.2791 6.54171 43.1583 0.329209 37.9249 0.333376C32.9083 0.333376 28.0583 6.15421 24.9625 15.1584C24.6569 16.0473 24.375 16.9417 24.1166 17.8417C23.5083 17.6917 22.8972 17.5528 22.2833 17.425C12.4249 15.4042 4.48745 16.7375 1.87495 21.275C-0.629217 25.6209 1.98745 32.7334 8.24162 39.9084C8.86384 40.6167 9.50273 41.3112 10.1583 41.9917C9.38328 42.7834 8.65412 43.5792 7.97078 44.3709C1.86662 51.4459 -0.60005 58.4375 1.89995 62.7667C4.48328 67.2417 12.3083 68.7042 21.8375 66.8292C22.6097 66.6764 23.3777 66.5042 24.1416 66.3125C24.4194 67.2875 24.7263 68.2556 25.0625 69.2167C28.1458 78.0375 32.9666 83.6667 37.9666 83.6667C43.1333 83.6667 48.3083 77.6125 51.4458 68.4209C51.6958 67.6959 51.9249 66.9417 52.1499 66.1667C53.1361 66.4111 54.1291 66.6278 55.1291 66.8167C64.3083 68.5542 71.5958 67.1917 74.0916 62.8584C76.6708 58.3792 74.0083 50.8709 67.6166 43.5667ZM4.95828 23.05C6.56662 20.2584 13.0541 19.1667 21.5666 20.9167C22.1111 21.0278 22.6652 21.1528 23.2291 21.2917C22.397 24.9682 21.8096 28.6958 21.4708 32.45C18.401 34.6087 15.4741 36.9636 12.7083 39.5C12.0999 38.8695 11.5069 38.2237 10.9291 37.5625C5.56662 31.4209 3.44995 25.6709 4.95828 23.05ZM21.1541 46.9167C19.0291 45.3042 17.0499 43.6542 15.2541 41.9959C17.0458 40.3459 19.0249 38.7042 21.1499 37.0959C21.0722 38.732 21.0347 40.3695 21.0374 42.0084C21.0374 43.6473 21.0763 45.2834 21.1541 46.9167ZM21.1541 63.3334C17.5425 64.1377 13.8138 64.2705 10.1541 63.725C9.15084 63.6466 8.17432 63.3632 7.28493 62.8923C6.39553 62.4215 5.61218 61.7732 4.98328 60.9875C3.46245 58.3625 5.44578 52.7459 10.6666 46.6959C11.3222 45.9375 11.9999 45.1987 12.6999 44.4792C15.467 47.0313 18.3998 49.3976 21.4791 51.5625C21.8213 55.3642 22.4143 59.1391 23.2541 62.8625C22.5597 63.0375 21.8583 63.1959 21.1499 63.3375L21.1541 63.3334ZM50.7374 29.8375C49.3402 28.957 47.9263 28.1056 46.4958 27.2834C45.0847 26.4723 43.6583 25.6903 42.2166 24.9375C44.5867 23.9365 47.005 23.0535 49.4624 22.2917C50.014 24.7839 50.4396 27.3024 50.7374 29.8375ZM28.3333 16.3125C30.9833 8.60421 34.9083 3.89588 37.9333 3.89588C41.1541 3.89171 45.3374 8.97088 48.0749 17.2167C48.2527 17.7556 48.4194 18.2973 48.5749 18.8417C44.9813 19.9554 41.4653 21.3056 38.0499 22.8834C34.6459 21.2863 31.1379 19.9207 27.5499 18.7959C27.7916 17.9625 28.0527 17.1348 28.3333 16.3125ZM26.6666 22.2459C29.1128 23.0158 31.5187 23.9086 33.875 24.9209C30.9527 26.4264 28.1083 28.0667 25.3416 29.8417C25.6749 27.1834 26.1208 24.6375 26.6666 22.2459ZM25.3458 54.1625C26.7263 55.0487 28.1277 55.9 29.5499 56.7167C30.9999 57.55 32.468 58.35 33.9541 59.1167C31.5809 60.164 29.1555 61.0889 26.6874 61.8875C26.114 59.3375 25.6662 56.7607 25.3458 54.1667V54.1625ZM48.0791 67.2709C46.9706 70.8002 45.222 74.0953 42.9208 76.9917C42.3526 77.822 41.6202 78.527 40.7688 79.063C39.9174 79.5991 38.9651 79.9549 37.9708 80.1084C34.9333 80.1084 31.0624 75.5875 28.4291 68.0417C28.118 67.15 27.8319 66.25 27.5708 65.3417C31.1758 64.1788 34.6977 62.7728 38.1124 61.1334C41.5569 62.7239 45.102 64.0866 48.7249 65.2125C48.5249 65.9042 48.3097 66.5903 48.0791 67.2709ZM49.5874 61.7542C47.098 60.9768 44.6478 60.0785 42.2458 59.0625C43.6597 58.3209 45.0833 57.5362 46.5166 56.7084C47.9888 55.8584 49.4222 54.9875 50.8166 54.0959C50.5381 56.668 50.1279 59.2241 49.5874 61.7542ZM51.4499 41.9917C51.4499 44.5223 51.3708 47.05 51.2124 49.575C49.1583 50.9667 46.9916 52.325 44.7374 53.625C42.4874 54.9209 40.2666 56.1125 38.0833 57.1917C35.7861 56.0917 33.5333 54.9056 31.3249 53.6334C29.1305 52.3695 26.9861 51.0237 24.8916 49.5959C24.6972 47.0681 24.6 44.5375 24.6 42.0042C24.6 39.4737 24.6944 36.9445 24.8833 34.4167C29.0719 31.557 33.4705 29.0179 38.0416 26.8209C40.3083 27.9237 42.5347 29.1056 44.7208 30.3667C46.9152 31.6278 49.068 32.9598 51.1791 34.3625C51.3597 36.9014 51.4499 39.4445 51.4499 41.9917ZM55.4333 20.7709C63.4416 19.2167 69.4749 20.2625 70.9874 22.8834C72.5999 25.675 70.2916 31.8334 64.5125 38.325C64.193 38.6834 63.8624 39.0431 63.5208 39.4042C60.7061 36.8597 57.7214 34.5098 54.5874 32.3709C54.2718 28.6582 53.7081 24.9708 52.8999 21.3334C53.7611 21.1223 54.6055 20.9348 55.4333 20.7709ZM54.8916 36.9584C57.0064 38.5019 59.0397 40.1541 60.9833 41.9084C59.0487 43.6908 57.0224 45.3708 54.9124 46.9417C54.9763 45.2917 55.0083 43.6417 55.0083 41.9917C55.0083 40.3139 54.9694 38.6362 54.8916 36.9584ZM71.0125 61.0792C69.4958 63.7084 63.6458 64.8042 55.7916 63.3209C54.8916 63.1514 53.9694 62.9487 53.0249 62.7125C53.8136 59.0281 54.3523 55.2946 54.6374 51.5375C57.7658 49.3626 60.7409 46.975 63.5416 44.3917C64.0333 44.9 64.4999 45.4056 64.9416 45.9084C67.446 48.6316 69.4276 51.7926 70.7874 55.2334C71.2227 56.1406 71.4672 57.1275 71.5059 58.133C71.5446 59.1385 71.3766 60.1412 71.0125 61.0792ZM34.2666 35.4917C32.9921 36.2276 31.9644 37.325 31.3135 38.645C30.6626 39.9649 30.4177 41.4483 30.6098 42.9074C30.8019 44.3666 31.4223 45.736 32.3927 46.8426C33.363 47.9491 34.6397 48.7431 36.0612 49.1241C37.4828 49.5051 38.9854 49.4561 40.3791 48.9832C41.7728 48.5103 42.9949 47.6347 43.891 46.4672C44.7871 45.2998 45.3169 43.8928 45.4135 42.4242C45.51 40.9556 45.1689 39.4914 44.4333 38.2167C43.9447 37.3701 43.2942 36.6281 42.5189 36.033C41.7435 35.4378 40.8585 35.0013 39.9144 34.7482C38.9703 34.4952 37.9856 34.4306 37.0166 34.5582C36.0475 34.6857 35.1131 35.0029 34.2666 35.4917Z" fill="white"/>
</svg>
