<svg width="76" height="76" viewBox="0 0 76 76" fill="none" xmlns="http://www.w3.org/2000/svg">
<path d="M46.3333 21.3333C50.9357 21.3333 54.6667 17.6023 54.6667 13C54.6667 8.39759 50.9357 4.66663 46.3333 4.66663C41.731 4.66663 38 8.39759 38 13C38 17.6023 41.731 21.3333 46.3333 21.3333Z" stroke="white" stroke-width="8.33333" stroke-linecap="round" stroke-linejoin="round"/>
<path d="M54.6666 13H71.3333M4.66663 13H38H4.66663Z" stroke="white" stroke-width="8.33333" stroke-linecap="round" stroke-linejoin="round"/>
<path d="M21.3333 46.3333C25.9357 46.3333 29.6667 42.6023 29.6667 38C29.6667 33.3976 25.9357 29.6666 21.3333 29.6666C16.731 29.6666 13 33.3976 13 38C13 42.6023 16.731 46.3333 21.3333 46.3333Z" stroke="white" stroke-width="8.33333" stroke-linecap="round" stroke-linejoin="round"/>
<path d="M29.6666 38H71.3333M4.66663 38H13H4.66663Z" stroke="white" stroke-width="8.33333" stroke-linecap="round" stroke-linejoin="round"/>
<path d="M58.8333 71.3333C63.4357 71.3333 67.1667 67.6023 67.1667 63C67.1667 58.3976 63.4357 54.6666 58.8333 54.6666C54.231 54.6666 50.5 58.3976 50.5 63C50.5 67.6023 54.231 71.3333 58.8333 71.3333Z" stroke="white" stroke-width="8.33333" stroke-linecap="round" stroke-linejoin="round"/>
<path d="M67.1666 63H71.3333M4.66663 63H50.5H4.66663Z" stroke="white" stroke-width="8.33333" stroke-linecap="round" stroke-linejoin="round"/>
</svg>
