<svg width="24" height="24" viewBox="0 0 24 24" fill="none" xmlns="http://www.w3.org/2000/svg">
<path d="M12.75 3.94C13.75 3.22 14.91 2.86 16.22 2.86C16.94 2.86 17.73 3.05 18.59 3.45C19.45 3.84 20.13 4.3 20.63 4.83C21.66 6.11 22.09 7.6 21.94 9.3C21.78 11 21.22 12.33 20.25 13.27L12.66 20.86C12.47 21.05 12.23 21.14 11.95 21.14C11.67 21.14 11.44 21.05 11.25 20.86C11.1576 20.7689 11.0851 20.6597 11.0369 20.5392C10.9887 20.4188 10.9659 20.2897 10.97 20.16C10.97 19.88 11.06 19.64 11.25 19.45L15.84 14.86C16.09 14.64 16.09 14.41 15.84 14.16C15.59 13.91 15.36 13.91 15.14 14.16L10.55 18.75C10.4574 18.8432 10.3465 18.9162 10.2243 18.9644C10.1021 19.0126 9.97126 19.035 9.83999 19.03C9.55999 19.03 9.32999 18.94 9.13999 18.75C9.04763 18.6589 8.97508 18.5497 8.9269 18.4292C8.87872 18.3088 8.85594 18.1797 8.85999 18.05C8.85999 17.77 8.94999 17.53 9.13999 17.34L13.73 12.75C14 12.5 14 12.25 13.73 12C13.5 11.75 13.28 11.75 13.03 12L8.43999 16.64C8.34639 16.7318 8.23532 16.8039 8.11336 16.852C7.99141 16.9001 7.86104 16.9232 7.72999 16.92C7.44999 16.92 7.20999 16.83 6.99999 16.64C6.79999 16.45 6.69999 16.22 6.69999 15.94C6.69999 15.66 6.80999 15.41 7.02999 15.19L11.63 10.59C11.88 10.34 11.88 10.11 11.63 9.89C11.38 9.67 11.14 9.67 10.92 9.89L6.27999 14.5C6.05999 14.7 5.82999 14.81 5.57999 14.81C5.29999 14.81 5.05999 14.71 4.87999 14.5C4.68999 14.3 4.58999 14.06 4.58999 13.78C4.58999 13.5 4.68999 13.27 4.87999 13.08C7.93999 10 9.82999 8.14 10.55 7.45L14.11 10.97C14.5 11.34 14.95 11.53 15.5 11.53C16.2 11.53 16.75 11.25 17.16 10.69C17.44 10.28 17.54 9.83 17.46 9.33C17.38 8.83 17.17 8.41 16.83 8.06L12.75 3.94ZM14.81 10.27L10.55 6L3.46999 13.08C2.62999 12.23 2.14999 10.93 2.03999 9.16C1.92999 7.4 2.40999 5.87 3.46999 4.59C4.65999 3.41 6.07999 2.81 7.72999 2.81C9.38999 2.81 10.8 3.41 11.95 4.59L16.22 8.86C16.41 9.05 16.5 9.28 16.5 9.56C16.5 9.84 16.41 10.08 16.22 10.27C16.03 10.45 15.8 10.55 15.5 10.55C15.23 10.55 15 10.45 14.81 10.27Z" fill="white"/>
</svg>
